<svg width="24" height="25" viewBox="0 0 24 25" fill="#fff" xmlns="http://www.w3.org/2000/svg">
<g id="bx:search">
<path id="Vector" d="M10 18.2614C11.775 18.261 13.4988 17.6668 14.897 16.5734L19.293 20.9694L20.707 19.5554L16.311 15.1594C17.405 13.761 17.9996 12.0368 18 10.2614C18 5.85035 14.411 2.26135 10 2.26135C5.589 2.26135 2 5.85035 2 10.2614C2 14.6724 5.589 18.2614 10 18.2614ZM10 4.26135C13.309 4.26135 16 6.95235 16 10.2614C16 13.5704 13.309 16.2614 10 16.2614C6.691 16.2614 4 13.5704 4 10.2614C4 6.95235 6.691 4.26135 10 4.26135Z" fill="#0E76BC"/>
</g>
</svg>
