<svg width="24" height="25" viewBox="0 0 24 25" fill="none" xmlns="http://www.w3.org/2000/svg">
<g id="bxs:phone-call">
<path id="Vector" d="M20 11.2604H22C22 6.13035 18.127 2.26135 12.99 2.26135V4.26135C17.052 4.26135 20 7.20435 20 11.2604Z" fill="#0E76BC"/>
<path id="Vector_2" d="M13 8.26135C15.103 8.26135 16 9.15835 16 11.2613H18C18 8.03635 16.225 6.26135 13 6.26135V8.26135ZM16.422 13.7043C16.2299 13.5297 15.9774 13.4366 15.7178 13.4446C15.4583 13.4526 15.212 13.5612 15.031 13.7473L12.638 16.2083C12.062 16.0983 10.904 15.7373 9.71204 14.5483C8.52004 13.3553 8.15904 12.1943 8.05204 11.6223L10.511 9.22835C10.6975 9.04748 10.8062 8.80117 10.8142 8.54155C10.8222 8.28194 10.7289 8.02939 10.554 7.83735L6.85904 3.77435C6.68408 3.5817 6.44092 3.46485 6.18119 3.44861C5.92146 3.43236 5.66564 3.51801 5.46804 3.68735L3.29804 5.54835C3.12515 5.72186 3.02196 5.9528 3.00804 6.19735C2.99304 6.44735 2.70704 12.3693 7.29904 16.9633C11.305 20.9683 16.323 21.2613 17.705 21.2613C17.907 21.2613 18.031 21.2553 18.064 21.2533C18.3086 21.2397 18.5394 21.136 18.712 20.9623L20.572 18.7913C20.7415 18.5939 20.8273 18.3381 20.8113 18.0784C20.7952 17.8187 20.6785 17.5754 20.486 17.4003L16.422 13.7043Z" fill="#0E76BC"/>
</g>
</svg>
