<svg width="60" height="59" viewBox="0 0 60 59" fill="none" xmlns="http://www.w3.org/2000/svg">
<g id="history_edu_FILL0_wght300_GRAD0_opsz48 1" clip-path="url(#clip0_53_2341)">
<path id="Vector" d="M16.0965 47.4334C15.3679 47.4334 14.7304 47.1602 14.184 46.6137C13.6375 46.0673 13.3643 45.4298 13.3643 44.7012V39.5405H20.5286V31.2227C18.95 31.4655 17.3512 31.3542 15.7322 30.8887C14.1131 30.4233 12.7167 29.6036 11.5429 28.4298V24.787H8.20361L0.857178 17.3798C2.27384 16.1655 3.92325 15.1739 5.80539 14.4048C7.68753 13.6358 9.60004 13.2512 11.5429 13.2512C12.9596 13.2512 14.4875 13.484 16.1268 13.9495C17.7661 14.4149 19.2334 15.1536 20.5286 16.1655V11.4298H46.15V42.0298C46.15 43.5679 45.6238 44.853 44.5715 45.8852C43.5191 46.9173 42.2441 47.4334 40.7465 47.4334H16.0965ZM23.3215 39.5405H38.075V42.0298C38.075 42.7989 38.328 43.4364 38.834 43.9423C39.3399 44.4483 39.9774 44.7012 40.7465 44.7012C41.5155 44.7012 42.153 44.4483 42.659 43.9423C43.1649 43.4364 43.4179 42.7989 43.4179 42.0298V14.162H23.3215V18.2905L37.2858 32.3155V34.2584H35.3429L27.6322 26.6084L26.2965 28.0655C25.8107 28.5917 25.3352 29.0066 24.8697 29.3102C24.4042 29.6137 23.8881 29.9072 23.3215 30.1905V39.5405ZM9.47861 22.0548H14.275V27.1548C15.0846 27.6405 15.8536 28.0048 16.5822 28.2477C17.3107 28.4905 18.0191 28.612 18.7072 28.612C19.8 28.612 20.8727 28.3387 21.925 27.7923C22.9774 27.2459 23.7869 26.6691 24.3536 26.062L25.6286 24.6048L21.2572 20.2334C19.9215 18.8977 18.434 17.8554 16.7947 17.1066C15.1554 16.3578 13.4048 15.9834 11.5429 15.9834C10.3691 15.9834 9.25599 16.1554 8.20361 16.4995C7.15123 16.8435 6.15956 17.2584 5.22861 17.7441L9.47861 22.0548ZM16.0965 44.7012H36.2536C35.9703 44.4584 35.7477 44.1143 35.5857 43.6691C35.4238 43.2239 35.3429 42.7584 35.3429 42.2727H16.0965V44.7012ZM16.0965 44.7012V42.2727V44.7012Z" fill="white"/>
</g>
<defs>
<clipPath id="clip0_53_2341">
<rect width="58.2857" height="58.2857" fill="white" transform="translate(0.857178 0.379822)"/>
</clipPath>
</defs>
</svg>
